<?xml version="1.0" encoding="utf-8"?>
<!-- Generator: Adobe Illustrator 15.0.0, SVG Export Plug-In . SVG Version: 6.00 Build 0)  -->
<!DOCTYPE svg PUBLIC "-//W3C//DTD SVG 1.1//EN" "http://www.w3.org/Graphics/SVG/1.1/DTD/svg11.dtd">
<svg version="1.1" id="レイヤー_1" xmlns="http://www.w3.org/2000/svg" xmlns:xlink="http://www.w3.org/1999/xlink" x="0px"
	 y="0px" width="140px" height="140px" viewBox="0 0 140 140" enable-background="new 0 0 140 140" xml:space="preserve">
<g>
	<path d="M123.999,86.615c-0.207-0.683-1.034-1.911-1.401-2.279c-0.364-0.363-2.03-1.782-2.82-2.553
		c-0.577-0.562-1.293-1.255-1.834-1.769c-0.995-0.941-1.871-1.468-2.461-1.885c-0.797-0.562-2.097-1.515-2.609-1.89
		c-1.244-0.911-1.661-1.194-2.634-2.008c-0.649-0.543-1.173-1.135-1.914-2.075c-0.569-0.724-1.796-1.984-2.391-2.595
		c-0.482-0.492-1.094-1.256-1.418-1.458c-0.324-0.204-2.417-1.457-3.063-1.889c-0.801-0.539-0.697-0.492-1.51-0.94
		c-0.812-0.444-1.528-1.036-2.015-1.442c-0.487-0.405-1.175-1.025-1.58-1.434c-0.407-0.403-1.226-1.316-1.67-1.844
		c-0.447-0.527-0.873-1.36-1.396-2.131c-0.372-0.544-0.978-0.907-1.354-1.283c-0.526-0.526-1.068-0.991-1.55-1.322
		c-0.55-0.379-1.332-0.616-1.739-0.605c-0.573,0.014-0.981,0.501-1.539,0.876c-0.784,0.529-1.097,0.809-1.504,1.133
		c-0.406,0.325-1.229,1.041-1.473,1.245c-0.242,0.204-1.639,1.125-1.639,1.125s-1.45-1.422-2.301-2.225
		c-0.528-0.496-0.934-1.075-1.608-2.001c-0.7-0.956-0.812-1.105-1.301-1.798c-0.487-0.691-0.7-0.934-1.457-1.685
		c-0.566-0.558-1.147-1.165-1.352-1.415c-0.583-0.712-1-1.113-1-1.113c-0.237-0.206-1.922-0.836-2.76-0.716
		c-0.833,0.12-1.833,1.362-2.552,1.844c-0.805,0.537-2.003,1.267-2.637,1.639c-0.831,0.487-0.735,0.472-1.358,1.198
		c-0.72,0.838-1.144,1.203-1.753,1.813c-0.607,0.607-1.921,1.87-2.219,2.102c-0.364,0.278-1.869,1.289-1.869,1.289
		c-1.909,1.381-2.903,1.772-2.903,1.772s-0.225-0.11-0.956-0.678c-0.771-0.604-1.425-1.18-2.153-1.629
		c-0.546-0.335-0.836-0.383-1.532-0.596c-0.791-0.242-1.508-0.284-2.198,0.131c-0.592,0.354-2.123,1.336-2.419,1.629
		c-0.697,0.68-1.226,1.7-1.547,2.181c-0.288,0.434-0.907,1.214-0.907,1.214c-0.519,0.587-0.746,0.728-1.202,1.14
		c-0.365,0.327-1.033,1.068-1.275,1.271c-0.797,0.66-1.526,1.207-1.526,1.207c-0.318,0.204-1.731,1.321-2.232,1.662
		c-0.417,0.284-2.025,1.419-2.747,1.906c-0.901,0.609-2.439,1.367-3.018,1.805c-0.867,0.651-1.198,1.187-1.686,1.604
		c-0.486,0.419-2.399,2.54-2.669,2.798c-0.271,0.257-1.369,1.184-1.99,1.703c-0.619,0.523-1.059,0.771-1.87,1.335
		c-0.811,0.565-2.298,1.688-2.98,2.214c-0.683,0.523-1.913,1.272-2.548,1.775c-0.877,0.693-1.562,1.941-1.562,1.941
		s-0.6,1.065-0.633,1.519c-0.042,0.592,0.075,0.917,0.549,1.352c0.508,0.463,0.785,0.571,1.309,0.674
		c0.633,0.129,1.224,0.252,2.236,0.381c1.434,0.177,0.813,0.103,1.899,0.211c1.49,0.15,1.549,0.136,2.359,0.233
		c0.514,0.062,1.91,0.305,2.731,0.327c0.505,0.011,2.789,0.164,4.578,0.249c0.775,0.034,3.332,0.093,3.738,0.093
		c0.405,0,3.085,0.341,4.267,0.354c1.178,0.016,3.127,0.23,3.614,0.27c0.487,0.04,1.145,0.151,1.963,0.215
		c0.969,0.078,6.753,0.139,7.254,0.143c0.448,0.003,4.049,0.023,4.575,0.064c1.332,0.102,4.683,0.35,5.332,0.367
		c1.119,0.034,2.178,0,3.379-0.044c1.058-0.04,3.949-0.235,5.167-0.278c1.108-0.041,3.453-0.027,3.898,0.012
		c0.446,0.041,4.209,0.183,5.305,0.263c1.096,0.082,1.29,0.044,1.94,0.044s4.226-0.437,5.688-0.595
		c0.983-0.106,2.242-0.276,2.567-0.315c0.324-0.041,3.028-0.238,3.516-0.278c0.488-0.039,2.917-0.236,3.2-0.236
		c0.284,0,2.489,0.011,3.79,0.05c1.298,0.041,2.434,0.029,3.124-0.009c0.688-0.041,1.462-0.194,2.517-0.313
		c1.056-0.125,1.562-0.265,2.978-0.381c1.429-0.12,2.628-0.202,3.358-0.202c0.729,0,2.054-0.056,2.62-0.056
		c0.568,0,3.265-0.134,3.547-0.134c0.284,0,2.842-0.243,3.492-0.286c0.649-0.039,1.729-0.13,1.907-0.569
		C124.327,87.626,124.231,87.376,123.999,86.615z M120.019,85.826c-0.161,0.122-0.605,0.137-1.539,0.177
		c-0.935,0.045-1.747,0.124-2.924,0.124s-2.477,0.039-3.491,0.08c-1.016,0.039-2.558,0.163-3.329,0.243
		c-0.771,0.083-3.954,0.359-4.44,0.401c-0.451,0.038-2.59,0.136-3.704,0.148c-1.107,0.019-3.71-0.102-4.114-0.062
		c-0.407,0.04-2.843,0.165-3.329,0.244c-0.487,0.082-1.907-0.04-2.517-0.04s-2.721-0.093-3.086-0.132
		c-0.366-0.041-2.72,0.213-3.328,0.254c-0.609,0.04-2.758,0.312-3.489,0.312c-0.729,0-3.416-0.026-4.219,0.014
		c-0.775,0.042-3.05-0.043-3.455-0.043c-0.407,0-1.686-0.055-2.657-0.081c-0.934-0.022-3.108,0.163-3.515,0.163
		s-3.045,0.12-3.653,0.12c-0.609,0-4.217,0.018-4.582,0.018s-3.748-0.088-4.445-0.129c-0.285-0.018-2.812-0.203-3.539-0.292
		c-0.837-0.106-3.025-0.318-4.208-0.487c-0.348-0.049-4.312,0.084-5.877,0.119c-1.319,0.029-2.477,0.245-3.613,0.125
		c-1.136-0.125-4.267-0.315-4.874-0.369c-0.957-0.084-1.61-0.128-3.369-0.332c-1.225-0.142-2.653-0.268-4.219-0.274
		c-1.422-0.004-1.797-0.1-2.606-0.142c-0.647-0.034-1.454-0.231-1.941-0.266c-0.622-0.052,0.054-0.431,0.054-0.431
		s0.486-0.259,1.344-0.808c0.445-0.285,2.328-1.619,2.74-1.935c0.16-0.122,2.014-1.476,2.095-1.558
		c0.082-0.079,1.867-1.485,2.202-1.773c0.305-0.261,1.986-1.69,2.312-1.934c0.325-0.245,1.082-0.825,1.344-1.022
		c0.234-0.178,1.688-1.219,2.36-1.665c0.323-0.214,0.655-0.467,1.305-1.027c0.437-0.379,1.652-1.417,2.183-1.889
		c0.523-0.463,1.832-1.511,2.239-1.83c0.722-0.567,1.502-1.218,1.745-1.461c0.243-0.244,0.86-0.782,1.624-1.423
		c1.177-0.984,2.008-1.853,2.413-2.5c0.407-0.652,0.956-1.476,1.321-1.924c0.365-0.447,1.237-1.367,1.62-1.667
		c0.372-0.292,0.53-0.681,1.231-0.615c0.389,0.035,0.802,0.096,1.249,0.456c0.49,0.395,0.945,0.816,1.502,1.22
		c0.282,0.201,0.986,0.797,1.379,1.132c0.454,0.388,0.772,0.545,1.432,1.046c0.285,0.215,0.816,0.521,1.679,1.314
		c0.493,0.456,1.194,1.093,1.6,1.499c0.406,0.406,0.716,0.693,1.38,1.179c0.655,0.475,1.487,0.976,1.949,1.298
		c0.447,0.311,1.4,0.703,1.684,0.743c0.2,0.03,0.339,0.118,0.427-0.175c0.097-0.319-0.438-1.148-0.653-1.392
		c-0.293-0.333-0.53-0.644-1.035-1.1c-0.324-0.298-0.822-0.794-1.269-1.348c-0.701-0.868-1.08-1.614-1.884-2.367
		c-0.728-0.681-1.447-1.312-1.447-1.312s1.614-1.294,2.025-1.615c0.364-0.285,1.631-0.964,2.081-1.208
		c0.431-0.234,0.814-0.691,1.651-1.401c0.688-0.58,1.373-1.134,1.662-1.352c0.444-0.331,1.163-0.866,1.478-1.088
		c0.472-0.33,1.93-1.758,2.451-2.209c0.436-0.377,0.773-0.528,1.696-1.064c0.442-0.257,0.666-0.257,1.184-0.073
		c0.561,0.201,1.327,1.086,1.803,1.641c0.302,0.352,0.95,1.098,1.32,1.636c0.257,0.374,0.58,1.083,0.978,1.877
		c0.226,0.454,0.396,0.607,0.872,1.081c0.609,0.612,1.784,1.592,2.311,2.079c0.528,0.488,1.888,1.806,2.111,2.03
		c0.287,0.288,1.037,1.19,1.565,1.839c0.527,0.649,1.764,1.694,2.21,2.139c0.446,0.446,1.28,0.823,1.646,0.986
		c0.365,0.165,1.417,0.614,1.989,0.59c0.563-0.027,0.599-0.091,0.274-0.415c-0.325-0.325-2.312-2.338-2.637-2.746
		c-0.324-0.404-1.047-1.2-1.435-1.825c-0.257-0.413-0.609-1.379-0.609-1.379s0.689-0.691,1.055-1.098
		c0.367-0.405,0.772-0.853,1.016-1.177c0.243-0.322,0.705-0.744,0.986-1.014c0.453-0.436,0.747-0.776,1.382-0.562
		c0.617,0.206,1.073,0.867,1.668,1.788c0.488,0.761,1.175,1.656,1.716,2.322c0.544,0.673,1.457,1.438,1.743,1.801
		c0.282,0.367,1.517,1.875,2.207,2.402c0.915,0.7,1.304,0.917,2.18,1.489c0.784,0.51,0.928,0.661,2.526,1.791
		c0.711,0.501,1.851,1.844,2.216,2.127c0.364,0.284,1.303,1.091,1.507,1.335c0.201,0.243,0.967,0.913,1.246,1.206
		c0.359,0.376,0.74,0.674,1.161,1.032c0.44,0.372,1.681,1.542,2.029,1.826c0.255,0.203,1.629,1.201,2.197,1.649
		c0.569,0.447,2.006,1.549,2.414,1.79c0.406,0.244,1.623,1.48,1.948,1.723c0.325,0.241,1.396,1.391,1.885,1.676
		c0.486,0.283,1.593,0.957,1.85,1.185C119.937,85.538,120.182,85.706,120.019,85.826z"/>
</g>
</svg>
